<?xml version="1.0" encoding="UTF-8"?>
<!DOCTYPE svg PUBLIC "-//W3C//DTD SVG 1.1//EN" "http://www.w3.org/Graphics/SVG/1.1/DTD/svg11.dtd">
<!-- Creator: CorelDRAW 2018 (64 Bit) -->
<svg xmlns="http://www.w3.org/2000/svg" xml:space="preserve" width="291px" height="902px" version="1.1" style="shape-rendering:geometricPrecision; text-rendering:geometricPrecision; image-rendering:optimizeQuality; fill-rule:evenodd; clip-rule:evenodd"
viewBox="0 0 58.57 181.19"
 xmlns:xlink="http://www.w3.org/1999/xlink">
 <defs>
  <style type="text/css">
   <![CDATA[
    .fil0 {fill:black}
   ]]>
  </style>
 </defs>
 <g id="Capa_x0020_1">
  <metadata id="CorelCorpID_0Corel-Layer"/>
  <path class="fil0" d="M21.32 17.74c-2.04,-1.15 -3.28,-2.86 -5.1,-4.59 -6.13,-5.82 -8.42,-14.61 -16.22,-12.45 0.43,2.75 3.66,5.32 6.12,7.48 1.11,0.97 2.26,1.93 3.91,3.02 5.76,3.83 6.87,4.31 11.47,10.49 1.85,2.49 4.63,5.79 5.9,8.55 -3.87,-2.59 -9.29,-6.61 -15.67,-6.41 0.59,2.38 4.13,4.14 5.93,5.47 7.46,5.53 14.74,6.08 18.52,15.39 4.09,10.06 9.05,24.26 10.26,35.8 -2.55,-2.37 -8.57,-12.43 -15.69,-12.6 0.14,2.89 0.31,1.43 2.34,3.74 0.88,1.01 1.98,2.45 2.81,3.49 2.63,3.31 3.08,3.64 6.19,6.37 5.81,5.09 6.13,8.4 7.33,18.29 1.68,13.91 4.88,33.63 4.68,47.26l-6.93 -14.09c-2.31,-4.61 -5.29,-9.23 -7.85,-13.49 -2.58,-4.27 -6.63,-9.51 -6.4,-15.21 0.26,-6.47 -0.61,-5.2 0.46,-9.25 0.47,-1.73 0.64,-1.73 -0.1,-4.05 -0.68,-2.13 -1.06,-2.53 -2.62,-3.29 -4.79,3.45 0.04,8.21 0.53,11.01 0.31,1.8 0.16,3.6 -0.04,5.4l-8.36 -13.95c-1.39,-2.44 -2.21,-4.55 -4.56,-6.73 -1.67,-1.54 -4.35,-4.02 -7.62,-3.63 0.39,5.51 11.19,14.61 14.18,17.79 1.5,1.6 10.5,17.89 11.49,20.54 -12.7,-4.29 -11.53,-8.43 -13.15,-10.09 -1.24,-1.28 -4.11,-1.97 -6.52,-2.03 0.12,6.43 3.46,4.81 9.13,8.84 3.8,2.69 8.3,3.59 11.88,6.33 3.16,2.43 11.22,17.7 12.89,23.15 -1.84,-2.61 -15.27,-15.79 -21.51,-13.05 0.61,2.9 -0.3,0.26 4.76,4.45 7.55,6.24 10.12,4.69 17.28,12.24 6.92,7.31 2.94,29.97 6.63,33.26l0.9 -2.81c0.03,-0.39 -0.19,-2.63 -0.24,-3.17 -0.2,-2.05 -0.28,-4 -0.44,-6.03 -0.32,-4.1 -0.6,-8.05 -0.84,-12.16 -0.57,-9.8 -4.3,-40.59 -3.23,-47.25 0.72,-4.46 5.1,-17.6 3.22,-21.05 -2.2,1.16 -4.8,6.67 -5.35,10.27 -2.73,-11 -3.8,-23.09 -6.52,-34.37 -1.89,-7.84 -3.68,-8.23 -1.57,-17.21 1.01,-4.35 3.63,-13.38 2.64,-17.72 -4.65,1.59 -5.84,12.23 -6.55,17.65 -1.16,-4.33 -9.68,-17.44 -12.66,-21.75 -4.94,-7.13 -3.15,-3.28 -4.4,-13.43 -0.58,-4.64 1.39,-11.39 -4.52,-12.16 -0.36,2.02 -0.81,5.15 0.19,7.3 0.34,0.74 0.55,0.86 0.75,1.12 2.22,2.87 1.79,1.24 2.27,9.32z"/>
 </g>
</svg>
