<?xml version="1.0" encoding="UTF-8"?>
<!DOCTYPE svg PUBLIC "-//W3C//DTD SVG 1.1//EN" "http://www.w3.org/Graphics/SVG/1.1/DTD/svg11.dtd">
<!-- Creator: CorelDRAW 2018 (64 Bit) -->
<svg xmlns="http://www.w3.org/2000/svg" xml:space="preserve" width="225px" height="1113px" version="1.1" style="shape-rendering:geometricPrecision; text-rendering:geometricPrecision; image-rendering:optimizeQuality; fill-rule:evenodd; clip-rule:evenodd"
viewBox="0 0 46.06 228.08"
 xmlns:xlink="http://www.w3.org/1999/xlink">
 <defs>
  <style type="text/css">
   <![CDATA[
    .fil0 {fill:black}
   ]]>
  </style>
 </defs>
 <g id="Capa_x0020_1">
  <metadata id="CorelCorpID_0Corel-Layer"/>
  <path class="fil0" d="M8.18 69.07l1.73 -25.24c-2.89,0.77 -2.7,2.74 -4.18,8.26 -2.5,9.31 -1.41,12.74 0.16,22.42 0.73,4.49 -0.44,6.25 -1.39,10.34 -3.3,14.13 -4.76,30.43 -4.46,45.48 0.19,9.7 1.75,96.21 2.6,97.75 3.76,-1.65 -1.65,-16.65 2.76,-29.01 1.74,-4.89 9.74,-18.17 9.13,-22.37 -2.54,0.36 -7.88,8.46 -9.07,10.95 -0.86,1.78 -1.11,3.33 -2.02,4.87 -1.87,-22.96 4.99,-50.67 13.47,-71 2.49,-5.97 3.2,-6.69 7.37,-9.92 3.04,-2.37 5.83,-4.97 9.24,-7.4l6.98 -5.84c1.75,-1.53 1.35,-0.69 1.85,-2.63 -3.26,-1.12 -11.89,5.02 -14.67,7.1 -1.96,1.47 -2.26,2.53 -3.86,3.76 7.37,-16.27 6.35,-12.65 16.86,-27.29 1.66,-2.31 5.57,-7.12 5.37,-9.61 -2.6,0.28 -5.36,2.84 -7.03,4.14 -7.34,5.7 -9.27,14.36 -12.36,22.23 -2.76,7.02 -7.65,15.94 -11,23.62 -1.1,2.51 -1.97,5.85 -3.29,8.14l1.63 -19.95c-0.32,-3.27 0.39,-1.21 -1.11,-2.92 -7.19,5.8 -2.45,28.55 -2.72,30.32 -0.2,1.31 -7.39,27.65 -7.59,28.03 -0.77,-9.68 -2.63,-65.68 3.4,-72.57 8.08,-9.24 16.13,-12.19 18.76,-28.56 -2.28,0.85 -1.71,0.51 -3.07,2.68l-15.12 20.38c0.91,-7.75 5.92,-26.07 11.22,-30.75l11.01 -10.14c1.87,-2.17 7.88,-9.86 7.66,-13.14l-15.01 13.47c-1.04,1.16 -1.16,1.49 -2.22,2.47 3.77,-13.1 7.45,-14.61 10.73,-22.81 2.38,-5.95 9.48,-19.62 10.02,-24.33 -3.13,0.78 -3.5,2.18 -6.37,6.24 -1.63,2.3 -3.73,5.17 -5.18,7.63 -2.5,4.24 -4.29,13.63 -6.03,18.99 -2.07,6.37 -4.52,12.08 -6.93,18.06 -1.22,3.04 -2.2,5.87 -3.32,8.76 -0.68,1.74 -1.24,2.93 -1.79,4.7l-1.18 3.35c-0.58,1.03 -0.33,0.65 -0.98,1.34z"/>
 </g>
</svg>
